<svg viewBox="0 0 120 120" fill="none" xmlns="http://www.w3.org/2000/svg">
  <rect x="0" y="0" width="120" height="120" rx="24" fill="#ffffff"/>
  <g transform="translate(0,10)" stroke="#2e3440" fill="#2e3440">
    <path d="M 26 12 C 17 12 17 19 17 27 L 17 40 C 17 46 13 48 9 50 C 13 52 17 54 17 60 L 17 73 C 17 81 17 88 26 88" stroke-width="7" stroke-linecap="round" fill="none"/>
    <path d="M 94 12 C 103 12 103 19 103 27 L 103 40 C 103 46 107 48 111 50 C 107 52 103 54 103 60 L 103 73 C 103 81 103 88 94 88" stroke-width="7" stroke-linecap="round" fill="none"/>
    <rect x="34" y="6" width="52" height="88" rx="10" stroke-width="7" fill="none"/>
    <rect x="44" y="17" width="32" height="20" rx="3" stroke-width="5" fill="none"/>
    <text x="60" y="34.5" text-anchor="middle" font-family="Helvetica, Arial, sans-serif" font-weight="bold" font-size="19" fill="#2e3440" stroke="none">$</text>
    <rect x="44" y="46" width="10" height="10" rx="2" stroke="none"/>
    <rect x="58" y="46" width="10" height="10" rx="2" stroke="none"/>
    <rect x="72" y="46" width="10" height="10" rx="2" stroke="none"/>
    <rect x="44" y="60" width="10" height="10" rx="2" stroke="none"/>
    <rect x="58" y="60" width="10" height="10" rx="2" stroke="none"/>
    <rect x="44" y="74" width="10" height="10" rx="2" stroke="none"/>
    <rect x="58" y="74" width="10" height="10" rx="2" stroke="none"/>
    <rect x="72" y="60" width="10" height="24" rx="2" stroke="none"/>
  </g>
</svg>
